<svg width="154" height="64" viewBox="0 0 154 64" fill="none" xmlns="http://www.w3.org/2000/svg">
<path fill-rule="evenodd" clip-rule="evenodd" d="M59.292 42.755C58.459 42.505 57.139 43.128 57.139 43.128C57.139 43.128 54.112 45.641 39.299 42.75C28.391 40.621 22.716 40.833 22.716 40.833C22.716 40.833 24.549 28.333 24.049 24.833C24.049 24.833 24.049 23.916 22.966 23.916C21.883 23.916 21.216 24.333 21.216 24.916C21.216 24.9993 21.2194 25.149 21.224 25.3522V25.3523C21.2518 26.571 21.3234 29.714 20.966 31.999C20.966 31.999 19.549 36.25 14.799 35.916C10.049 35.582 9.04896 32.166 8.63196 29.833C8.21496 27.5 7.96596 21 9.21596 18.333C9.21596 18.333 16.383 18.583 20.883 14.75C25.383 10.917 25.133 7.583 22.966 6.167C20.799 4.751 15.883 5 12.049 8.5C8.21496 12 6.96596 15.5 6.96596 15.5C6.96596 15.5 1.34096 14.292 2.63296 8.417C3.98196 2.277 12.393 3 12.393 3C12.703 3.05899 12.9604 3.11278 13.1773 3.1581C14.1848 3.36863 14.3192 3.39672 14.799 2.917C15.382 2.334 15.799 0.834 13.049 0.75C10.299 0.666 2.04896 2.021 0.465958 7.5C-1.21904 13.328 1.90096 17.497 6.08796 18.143C6.08796 18.143 3.79996 28.25 6.63296 33.25C9.42145 38.1715 13.4442 38.1684 15.1482 38.167L15.228 38.167C16.883 38.167 19.8 37.251 20.633 35.917C20.633 35.917 20.24 39.498 19.909 40.797C19.909 40.797 12.974 40.702 10.8 41.833C7.11196 43.75 7.88296 48.313 9.29996 49.937C10.504 51.317 14.112 52.062 16.717 50.833C19.422 49.556 21.582 47.094 22.266 43.136C22.266 43.136 28.634 42.667 34.8 44.5C40.966 46.333 49.556 48.056 52.14 48.056C54.724 48.056 60.186 47.318 60.467 45.167C60.653 43.729 60.125 43.005 59.292 42.755ZM15.862 9.328C15.862 9.328 19.143 6.828 20.706 8.39C20.706 8.39 21.956 9.671 20.8 11.202C20.7757 11.2341 20.75 11.2687 20.7226 11.3057L20.7222 11.3062C20.0059 12.2709 18.0976 14.841 10.144 16.14C10.143 16.141 12.737 11.578 15.862 9.328ZM11.08 47.359C11.596 50.703 16.127 48.234 16.127 48.234C19.346 46.406 19.346 43.078 19.346 43.078C14.642 42.91 13.564 43.399 12.767 43.789C11.97 44.179 10.747 45.201 11.08 47.359Z" fill="white"/>
<path fill-rule="evenodd" clip-rule="evenodd" d="M73.5739 31.247L73.5759 24.477C73.5759 23.446 76.4819 22.855 76.4819 24.148C76.4819 26.2246 76.5266 28.3248 76.5714 30.4338C76.6745 35.2837 76.7785 40.1796 76.3429 44.939C76.0829 47.754 75.6139 52.425 72.5129 53.775C70.3639 54.71 68.0209 53.593 67.7879 51.113C67.3849 46.833 68.7799 43.417 71.9829 40.592C72.2909 40.32 72.9459 40.178 73.5299 40.177L73.5343 39.6729C73.543 38.6679 73.5517 37.663 73.5559 36.658C72.4429 37.599 71.1219 38.091 69.7839 37.586C68.5629 37.126 67.7959 36.169 67.3229 34.97C65.7759 37.406 63.1319 39.876 60.1559 38.578C58.3789 37.803 57.4939 35.892 57.1379 33.748C57.0069 34.011 56.7739 34.459 56.3649 35.229C55.1559 37.499 53.9519 38.388 52.4269 38.388C50.7189 38.388 50.7699 36.005 50.7699 36.005C50.7699 36.005 50.2189 37.458 47.5519 37.937C45.5779 38.292 44.0499 36.791 43.3389 34.952C42.1629 37.055 40.5749 38.205 39.1989 38.375C37.1769 38.625 36.0959 35.25 36.0959 35.25C35.9099 34.684 35.7529 34.084 35.6089 33.469C34.4359 36.529 32.4509 38.168 30.7799 38.375C28.7579 38.625 27.6769 35.25 27.6769 35.25C25.7119 29.251 26.1149 20.313 28.1769 12.125C30.2389 3.937 33.6769 5.312 34.4889 5.875C35.3009 6.438 35.6129 9.75 34.0509 16.5C32.6767 22.4386 29.8062 26.9545 29.1326 28.0143C29.0406 28.1591 28.9895 28.2394 28.9889 28.25C28.8329 30.735 29.1449 32.766 29.7389 34.438C30.4169 36.347 32.3009 35.188 33.8009 32.438C34.2371 31.6403 34.647 30.8285 35.0299 30.004C34.4579 24.625 35.0719 18.172 36.5949 12.125C38.6569 3.937 42.0949 5.312 42.9069 5.875C43.7189 6.438 44.0309 9.75 42.4689 16.5C41.0947 22.4386 38.2242 26.9545 37.5506 28.0143L37.5506 28.0144L37.5506 28.0144L37.5505 28.0145L37.5504 28.0146C37.4585 28.1592 37.4075 28.2394 37.4069 28.25C37.2509 30.735 37.5629 32.766 38.1569 34.438C38.8349 36.347 40.7189 35.188 42.2189 32.438C42.4859 31.949 42.7159 31.501 42.9289 31.076C43.0969 28.949 43.8259 26.556 46.0089 24.022C49.1609 20.364 52.7169 22.314 53.1549 23.189C53.5929 24.064 53.8299 24.821 53.6549 26.835C53.4718 28.947 53.184 31.7441 53.0038 33.4964L53.0038 33.4965L53.0037 33.4972L53.0036 33.4976L53.0036 33.4977L53.0035 33.4985C52.9172 34.3379 52.8555 34.9372 52.8419 35.106C52.7999 35.627 52.7789 36.44 53.9039 35.856C54.8539 35.363 56.4699 32.662 56.9509 31.83C56.8919 30.018 57.1199 28.223 57.4549 26.944C58.1799 24.17 60.1539 20.666 63.6179 21.247C66.7419 21.771 65.4939 26.123 63.6919 27.479C62.7429 28.193 60.2969 27.705 61.8679 26.523C62.5079 26.042 62.8019 24.091 62.4759 23.401C62.0098 22.4159 61.0268 24.615 60.8363 25.0413L60.8362 25.0415C60.8102 25.0997 60.799 25.1248 60.8059 25.104C60.1439 27.103 59.7989 29.259 59.9899 31.37C59.9996 31.476 60.0093 31.5876 60.0193 31.7039C60.1543 33.2618 60.3626 35.6647 61.5899 36.638C63.301 37.9945 64.7252 34.8964 65.3168 33.6094C65.3559 33.5244 65.3913 33.4474 65.4229 33.38C65.5969 33.009 66.1769 32.744 66.7639 32.643C66.4419 29.855 66.9769 26.625 67.3109 24.737C67.5409 23.438 70.5039 23.061 70.2469 24.515C69.7079 27.565 69.0429 31.462 70.4339 34.377C70.4599 34.4313 70.4882 34.4958 70.519 34.5659C70.7268 35.0395 71.0477 35.7705 71.5119 35.362C71.9854 34.9448 72.3845 34.4501 72.6919 33.899C73.1349 33.096 73.5179 32.293 73.5529 31.362C73.5543 31.3351 73.5601 31.3096 73.5659 31.2843C73.5688 31.2719 73.5716 31.2595 73.5739 31.247ZM32.2059 9.562C31.5809 9.562 30.9399 10.625 30.2519 13.281C29.5639 15.938 28.5809 25.312 28.5809 25.312C30.6879 21.188 32.2059 14.843 32.6749 12.562C33.1439 10.281 32.8309 9.562 32.2059 9.562ZM38.6699 13.281C39.3579 10.625 39.9989 9.562 40.6239 9.562C41.2489 9.562 41.5619 10.281 41.0929 12.562C40.6239 14.843 39.1059 21.188 36.9989 25.312C36.9989 25.312 37.9829 15.938 38.6699 13.281ZM51.4805 26.1194L51.4805 26.119C51.5023 25.9301 51.5186 25.7887 51.5289 25.708C51.6573 25.0052 51.2201 24.323 50.5279 24.146C49.7889 24.005 48.4869 24.224 47.2159 26.101C45.9449 27.978 44.4029 30.812 45.5489 34.02C45.5489 34.02 46.2829 36.126 47.9869 35.438C49.6169 34.78 50.0699 34 50.5699 32C51.0003 30.2785 51.3455 27.2885 51.4805 26.1194ZM73.5009 43.764C73.4629 46.447 73.1199 49.141 71.9219 51.574C71.2209 51.72 70.8929 51.457 70.6829 50.337C70.5341 49.2571 70.5506 48.1609 70.7319 47.086C70.9719 45.065 72.1139 43.35 73.5149 41.933C73.5118 42.2076 73.5105 42.4822 73.5091 42.7568C73.5075 43.0924 73.5059 43.428 73.5009 43.764ZM86.5859 15.649C87.4899 18.359 89.7599 20.42 92.3009 21.649C96.3649 23.24 99.2149 27.526 98.2769 32.008C97.3059 36.628 93.3339 39.516 88.6519 39.557C83.5989 39.601 78.5969 36.603 78.0209 31.262C77.6619 27.919 79.0289 23.131 82.7419 22.404C84.5059 22.057 85.0019 23.743 83.1949 24.097C80.9019 24.547 80.6089 30.412 81.1809 32.1C82.2549 35.271 85.4439 37.739 88.8739 37.709C97.1469 37.637 96.9169 26.921 90.6919 23.583C86.8109 21.86 81.3309 17.112 84.0629 12.262C86.4569 8.012 92.0689 6.042 96.5919 7.935C100.822 9.706 102.18 15.75 99.1659 19.168C95.7949 22.994 91.8459 18.962 91.2679 15.305C91.0659 14.034 93.9749 13.319 94.1659 14.529C94.3629 15.786 94.7809 17.255 95.7319 18.161C97.0799 19.441 97.7669 16.979 97.8279 15.884C97.9979 12.8 96.3489 9.356 92.8609 9.175C89.5139 9.002 85.3069 11.822 86.5859 15.649Z" fill="white"/>
<path fill-rule="evenodd" clip-rule="evenodd" d="M109.914 28.5296C109.357 31.2207 108.336 36.1484 110.881 37.532C111.982 38.13 109.297 39.248 108.552 38.845C105.413 37.1406 106.4 32.1605 107.024 29.009C107.091 28.6732 107.153 28.3581 107.206 28.07C107.271 27.7149 107.373 27.3424 107.475 26.9653C107.633 26.3847 107.794 25.7934 107.831 25.238C108.249 24.735 108.124 24.748 107.45 25.278L106.991 25.617C106.676 25.859 106.37 26.111 106.071 26.372C104.973 27.346 103.88 28.374 102.991 29.549C102.878 29.7 102.641 29.832 102.358 29.936C102.44 32.378 102.627 34.832 102.854 37.3C102.925 38.076 100.005 38.617 99.9559 38.077L99.9544 38.0607C99.4508 32.5355 98.9157 26.6635 99.7079 21.057C99.4419 21.147 99.1739 21.235 98.8989 21.32C97.2199 21.837 97.0029 20.942 98.6609 20.43C99.0769 20.302 99.4819 20.15 99.8799 19.99C100.131 18.5047 100.497 17.041 100.974 15.612C101.028 15.4514 101.083 15.2889 101.138 15.1251C102.343 11.5434 103.781 7.26561 107.593 5.924C111.995 4.375 111.349 9.742 110.054 12.346C108.272 15.92 105.96 18.165 102.872 19.741C102.489 22.22 102.331 24.713 102.319 27.219C104.373 25.048 107.211 22.777 109.596 23.361C111.208 23.7559 110.762 25.2645 110.363 26.6166C110.254 26.9834 110.149 27.3386 110.09 27.657C110.043 27.9078 109.982 28.2022 109.914 28.5296ZM105.265 11.3007C104.955 12.0012 104.641 12.7083 104.395 13.431C103.863 15 103.459 16.575 103.149 18.155C104.942 16.808 106.366 15.043 107.196 12.858C107.269 12.6654 107.355 12.4532 107.447 12.2268C107.999 10.8665 108.759 8.9947 108.134 7.791C107.335 6.25091 106.275 8.86506 105.705 10.2736C105.622 10.4784 105.549 10.6577 105.489 10.795C105.415 10.9633 105.34 11.1318 105.265 11.3007Z" fill="white"/>
<path fill-rule="evenodd" clip-rule="evenodd" d="M153.135 48.58C152.008 45.694 149.547 44.586 146.842 44.452C146.533 43.7245 146.154 43.0291 145.709 42.376C141.799 36.588 132.52 37.357 126.234 40.428C126.215 40.0139 126.195 39.6001 126.175 39.1871L126.175 39.1868C126.151 38.6894 126.126 38.1929 126.105 37.698C128.638 37.825 131.105 36.846 132.607 34.701C134.283 32.306 134.041 28.069 133.384 25.387C132.765 22.862 130.296 23.315 128.454 24.153C127.798 24.451 127.175 24.897 126.589 25.414L126.609 25.17L126.609 25.1698C126.657 24.579 126.706 23.988 126.749 23.4C126.86 21.858 123.907 22.247 123.808 23.603C123.504 27.7538 123.474 31.893 123.444 36.0295V36.0295V36.0295V36.0295C123.429 38.0676 123.414 40.1051 123.367 42.143C119.096 46.005 118.019 49.644 117.976 54.203C117.956 56.474 119.91 58.164 121.958 56.589C124.853 54.365 125.729 49.96 126.13 46.605C126.308 45.114 126.327 43.596 126.29 42.077C130.78 39.136 136.925 38.928 141.495 41.977C142.433 42.603 143.206 43.571 143.757 44.673C142.069 44.973 140.446 45.528 139.144 46.155C137.431 46.98 134.888 48.92 135.013 51.091C135.111 52.781 136.042 53.729 137.296 54.07C137.374 54.103 137.466 54.133 137.595 54.154C143.73 55.149 148.298 51.528 147.423 46.417C150.407 48.042 151.53 51.822 150.466 55.077C148.079 62.381 138.882 64.009 133.517 59.131C132.943 58.608 130.333 59.708 130.788 60.123C138.574 67.199 157.846 60.653 153.135 48.58ZM117.332 22.664C121.26 23.021 121.641 27.239 121.635 30.527C121.631 34.206 120.307 37.852 116.126 37.92C112.378 37.983 111.614 33.873 111.618 30.723C111.403 30.61 111.264 30.428 111.268 30.154C111.326 26.787 113.023 22.272 117.332 22.664ZM114.584 28.762C114.418 30.799 114.196 35.031 116.637 36.002C118.617 36.79 118.775 31.71 118.722 30.566C118.717 30.4592 118.712 30.3474 118.708 30.2313L118.708 30.2311L118.708 30.2309C118.637 28.5137 118.527 25.8653 117.201 24.731C115.42 23.207 114.639 26.22 114.338 28.237C114.514 28.3497 114.61 28.5542 114.584 28.762ZM122.046 51.948C122.732 50.354 123.089 48.543 123.191 46.805C123.222 46.2638 123.244 45.7234 123.265 45.1825L123.275 44.937C121.738 47.252 120.954 49.971 120.929 52.829C120.985 53.61 121.245 53.546 121.245 53.546C121.533 53.0244 121.801 52.4913 122.046 51.948ZM126.32 28.947C126.377 28.8972 126.426 28.8392 126.466 28.775C126.982 27.858 127.673 27.047 128.374 26.268C128.901 25.682 129.493 25.13 130.177 24.729C130.501 24.891 130.831 25.72 130.954 26.86C131.257 29.632 131.393 36.956 127.009 36.267C126.8 36.234 126.439 36.31 126.062 36.438V36.399C126.002 33.921 126.137 31.432 126.32 28.947ZM139.37 52.6891C139.381 52.6892 139.391 52.6893 139.4 52.691C144.469 53.513 145.457 49.21 144.173 45.643C141.632 45.719 138.548 47.078 138.056 49.602C137.843 50.698 137.656 52.29 139.345 52.688C139.353 52.6889 139.361 52.689 139.37 52.6891Z" fill="white"/>
</svg>
