<?xml version="1.0" encoding="utf-8"?><svg viewBox="0 0 24 24" xmlns="http://www.w3.org/2000/svg" xmlns:xlink="http://www.w3.org/1999/xlink"><style>:root&gt;svg{display:none}:root&gt;svg:target{display:block}</style><svg id="arrow" fill="none" xmlns="http://www.w3.org/2000/svg" viewBox="0 0 16 16"><path d="m4 1 8 7-8 6.5" stroke="#333"/></svg><svg id="bag" fill="none" xmlns="http://www.w3.org/2000/svg" viewBox="0 0 16 17"><path d="M1.25 7.57a2.5 2.5 0 0 1 2.5-2.7h8.5a2.5 2.5 0 0 1 2.5 2.7l-.53 6.63a2.5 2.5 0 0 1-2.5 2.3H4.28c-1.3 0-2.39-1-2.49-2.3l-.53-6.63Z" stroke="#333"/><path d="M4 9.5S3.78 1 8 1s4 8.5 4 8.5" stroke="#333"/></svg><svg id="bag_suggest" fill="none" xmlns="http://www.w3.org/2000/svg" viewBox="0 0 32 35"><path d="M.8 11c-.2-1.5 1-2.7 2.4-2.7h25.6c1.4 0 2.6 1.2 2.4 2.7l-1.6 21.2a2.5 2.5 0 0 1-2.5 2.3H4.9c-1.3 0-2.4-1-2.5-2.3L.8 11Z" stroke="#fff"/><path d="M7 18.5S6.5 1 15.5 1 24 18.5 24 18.5" stroke="#fff"/></svg><svg id="clock" fill="none" xmlns="http://www.w3.org/2000/svg" viewBox="0 0 18 18"><circle cx="9" cy="9" r="7" fill="#fff" stroke="#333"/><path d="M8.55 4.5v5.2L12.5 12" stroke="#333"/></svg><svg id="close" fill="none" xmlns="http://www.w3.org/2000/svg" viewBox="0 0 16 16"><path d="m3.7 12.07 8.35-8.19M12.25 12.07 3.9 3.88" stroke="#C4C4C4"/></svg><svg id="closes" fill="none" xmlns="http://www.w3.org/2000/svg" viewBox="0 0 16 16"><circle cx="8" cy="8" r="7" stroke="#333"/><path d="M4 6c.25 0 2.76-1.5 2.76-1.5h2.49S11.75 6 12 6" stroke="#333"/><path d="M4.02 5.4v1.78l1.74.3v4.46M11.98 5.4v1.78l-1.74.3v4.46M5.51 11.44h4.99M6.5 4.5S7 6.29 8 6.29 9.5 4.5 9.5 4.5" stroke="#333"/></svg><svg id="favorite" fill="none" xmlns="http://www.w3.org/2000/svg" viewBox="0 0 16 16"><path d="M7.9 3.1C6.7-2.53-2.6 1.9 1.76 7.6c4.35 5.7 6.64 7.9 6.64 7.9" stroke="currentColor"/><path d="M7.9 3.1c1.2-5.62 10.83-1.2 6.48 4.5S7.7 15.5 7.7 15.5" stroke="currentColor"/><path d="M7.4 2.7h1l-.02.54H7.4v-.53Z" fill="currentColor"/></svg><svg id="full_screen" fill="none" xmlns="http://www.w3.org/2000/svg" viewBox="0 0 16 16"><rect x=".5" y="2.5" width="13" height="13" rx="1.5" stroke="#fff"/><path d="M2.34 2.63V2.5c0-1.1.9-2 2-2h9.16a2 2 0 0 1 2 2v9.44c0 1.05-.98 1.81-2 1.56" stroke="#fff"/></svg><svg id="pay" fill="none" xmlns="http://www.w3.org/2000/svg" viewBox="0 0 14 16"><rect x=".5" y=".5" width="13" height="9" rx=".5" stroke="#333"/><path fill="#333" d="M1 3h12v2H1z"/></svg><svg id="person" fill="none" xmlns="http://www.w3.org/2000/svg" viewBox="0 0 16 16"><circle cx="8.46" cy="4.19" r="3.69" stroke="#333"/><path d="M.5 15.34h15M.5 15.84c0-3.4 4.35-5.93 7.71-5.84 3.22.09 7.29 2.43 7.29 5.84" stroke="#333"/></svg><svg id="star" fill="none" xmlns="http://www.w3.org/2000/svg" viewBox="0 0 10 10"><path d="m6 3.56.49 1.15.23.55.6.06 1.23.1-.94.82-.45.39.13.59.29 1.2L6.5 7.8 6 7.46l-.51.32-1.07.63.29-1.2.13-.59-.46-.4-.94-.81 1.24-.1.6-.05.23-.56L6 3.56ZM6 1 4.6 4.32l-3.6.3 2.73 2.37-.82 3.51L6 8.63l3.09 1.87-.82-3.51L11 4.62l-3.6-.3L6 1Z" fill="#333"/></svg><svg id="star_full" fill="none" xmlns="http://www.w3.org/2000/svg" viewBox="0 0 10 10"><path d="M5 7.63 8.09 9.5l-.82-3.51L10 3.62l-3.6-.3L5 0 3.6 3.31 0 3.63l2.73 2.37-.82 3.51L5 7.63Z" fill="#333"/></svg><svg id="favorite_full" fill="none" xmlns="http://www.w3.org/2000/svg" viewBox="0 0 16 16"><path d="m8.43 3.26 1.33-2.22 3.44.43 1.3 2.17v2.68L8.01 14.2 1.94 6.25l-.88-2.2L2.35 1.9l3-1.3 2.27 2.72.45.54.36-.6Z" fill="#fff" stroke="#fff"/><path d="M7.9 3.1C6.7-2.53-2.6 1.9 1.76 7.6c4.35 5.7 6.64 7.9 6.64 7.9" stroke="#fff"/><path d="M7.9 3.1c1.2-5.62 10.83-1.2 6.48 4.5S7.7 15.5 7.7 15.5" stroke="#fff"/><path d="M7.4 2.7h1l-.02.54H7.4v-.53Z" fill="#fff"/></svg></svg>