<svg width="61" height="73" fill="none" xmlns="http://www.w3.org/2000/svg">
  <path d="m42.2 52.1-2.4 3.1c-.4.4-1.2.6-1.8 0 0 0 .1-.2.2-.1 1 .2 1.8-.7 2.1-1.6.4-.7.6-1.2 1.2-1.6l.6-.8h-1c-.2.1-.6.2-.8 0-.2 0-.4-.1-.4-.4 0-.3.3-.1.4-.1 1.6 0 2.8-.6 3.5-2.3 0-.3.3-.4.4-.8-1.3.2-2.6.7-3.9-.2 1.2 0 2.3 0 3.4-.4.7-.3 1.2-.5 1.7-1.4l2.3-4.3c-.7 0-.9.5-1 .9l-.8 1.2c-.1.2-.6.3-.3.9l-.4.3c-1.7.7-3.5 1.6-5.5 1.1-.2 0-.4 0-.4-.3s.3 0 .5 0c1.4 0 2.7-.2 3.9-1 .6-.3.8-1.3 1.2-2.2h-1.6c-.1 0-.2-.1-.2-.3 0-.1.1 0 .2 0l1.7-.4c.3-.1.4-.3.6-.7.2-.8.6-1.6 1-2.4 0-.2.2-.3.4-.4 0 1.2-.7 2-1 3.3.6-.5 1.2-.5 1.7-.7.7-.2.4-1.2 1.1-1.4.2.4-.2.6-.2 1 1-.1 1-.1 1.2-1.3 0-1.4 1-2.6 2.1-3h.2c.2-.1.4-.6.9-.3.4.4.8.7.9 1.4 0 .4.1.5.2.7 1 1.3 1 1.5.2 2.8-.2.3-.2.4 0 .7 1.1 1.3 1.2 2.8.7 4.4-.6 1.8-2.2 3-4 1.3l-1 5.5-1.2 7.5-.2.6c.4 2-1.1 2.4-2.3 3-1 .5-2.3.7-3.4 1-1.2.3-2.5.4-3.7.6-1 .2-2.1.2-3.3.2-2.8 0-5.6-.4-8.4-1.1-1-.3-2-.3-2.8-1-.6-.5-1-1.1-2-1.2-.2 0-.1-.4-.1-.6-.1-.8.1-1.5.1-2.3l-.3-6.2-.3-6-.2-3.3-.2-.7c-.4.8-.8 1.4-.8 2.1 0 .5-.3.9-.5 1.3-1 1.8-1.3 3.8-1.4 6a87 87 0 0 0-.1 4.2l.1 6.8v3.6c-.1 0-.1.3-.3.2l-.2-.2v-1l-.1-6.5v-5.8c0-1.6.3-3.1.7-4.7.3-1.3.8-2.6 1-3.9.3-.8 1-1.3 1.1-2.1l1.3-4v-.6c-.6 1.6-1 3-2.2 4a1 1 0 0 1-.7.2c-1 0-2 .2-2.8-.5a5 5 0 0 1-1.1-1.3v.6c.5 1 .6 2.4.8 3.6.5 2.6 1.3 5.2 1.1 8l-.1 6.5-.4 6c.2 2-.6 3.3-2.3 3.4-.9.1-1.5.5-2 1.2-.6.7-.5 1 .1 1.5.9.7 1.9.7 2.9.7.8 0 1.7.2 2.6 0 .9-.4 2-.1 2.8-.8.5-.5.6-.9.2-1.5-.6-1-1.1-2-2.5-2.2 1-.5 1.8-.2 2.5.9l1 1.5c.3.4 0 .8-.1 1.1-.6.9-1.5 1.3-2.4 1.4-1.7.3-3.5.6-5.3.5-1 0-2-.6-2.7-1.4-.2-.2-.4-.7-.2-1 .6-1.2 1.4-2.3 2.8-2.4.8-.1 1.6-.3 2-1.3.1-.2.3-.4.2-.7-.2-1.6.1-3.3.3-5l.1-1.9c0-2.7.2-5.3 0-8 0-1.5-.3-3-.8-4.4-.2-.3-.4-.7 0-1.2l-.4-.9-1-5.1-.4-4.8c-.2-2.1-.4-4.2-.3-6.2 0-.9-.4-1.7-.2-2.5.3-1.1-.2-2.2.1-3.3l.2-.7c.1-.1.2-.4.5-.3.2.2.2.3 0 .6-.5 1.3-.2 2.5-.2 3.8 1-.7 1.8-1 2.8-1.1l3-.4c1.2-.1 2 .3 2.8 1.5-.2-1.1.4-2.3 0-3.5 0-.3 0-.4-.4-.3-1.4.3-2.8.4-4.2.5-1.1 0-2.2-.3-3.1-.7-.5-.2-.7-.7-.7-1.2 0-.6.5-1 1-1.1.2-.1.5-.2.8-.1 1.2.1 2.3-.3 3.4 0 1.3.1 2.8.1 3.9 1.2.1.1.5.3.2.5-.5.5-.2 1-.2 1.5v5.3c.6-.2.8-.7 1.2-.8.3 0 .3-.3.3-.6 0-1.8.5-2 2-1.4.5.2 1-.1 1.4.2 0 0 .2 0 .2-.2.3-.7 1-.7 1.4-1.2.2-.2.3 0 .5 0l2.2.7c.2 0 .4.3.5.6.1-.5.1-1 .3-1.3.1-.6.4-1.2 1.2-1.1h1.4c.3-1 1-.3 1.5-.3.3 0 .5-.4.8-.4 0 .2-.2.2 0 .3.4.2.5.8.6 1.1l1.4-1.5c-.7-.4-1.4-.3-2 .1 0-.4-.3-.3-.5-.3-3 0-6 0-9 .8-1.4.4-2.8.8-4 1.6-.4.2-.7.3-.9 0-.2-.5.3-.6.5-.8a12 12 0 0 1 4.2-1.4c.7 0 1.4-.3 2.1-.4.6-.2 1.2-.2 1.7-.2a94 94 0 0 1 4.7-.1h.5c.5 0 1 .4 1.2-.4 0-.3.6-.4.8-.3.4.2.9.3 1 .9v.4c1.2-1.1 2.2-2.2 3.4-3.1 1.6-1.4 2.8-3.3 3.9-5C49.6 12 51 10.1 52 7.8c0-.2.1-.3 0-.4-.5-1.2 0-2.3.5-3.4l.8-1.6a4 4 0 0 1 3-2.4c1-.3 1.7.3 2.5.7 1.7.7 2.3 2 1.5 4.4-.5 1.5-1.1 3-2 4.3-.4.5-.8 1-1.4 1.2-.8.4-1.3 1.4-1.7 2.2a34.2 34.2 0 0 0-3 8l-.4 2.2c-.2.4-.1.8.5.9.8 0 1.5 1.2 1.6 2 .4 2.1-.2 4-.5 6 0 .5 0 1-.2 1.6 0 .2 0 .6-.3.6s-.5-.3-.4-.7c.1-.7 0-1.6.2-2.4.3-.6.3-1.2.3-1.8l-2.6 1c-1.7.6-3.5.7-5.3.8h-4.6c-2.4.1-4.7-.2-7 0-2 .1-3.8-.2-5.6-.7-.8-.1-1.4-.7-2.2-.8-.5-.1-1 0-1.5-.4-.2-.2-.3.3-.3.5 0 1.2-.2 2.3-.3 3.4a32 32 0 0 1-1.2 7.7c-.3.6 0 1.1 0 1.6a765.7 765.7 0 0 1 .6 10.7v.8l.3 6.8c0 .4.2.7.5.8.6.2 1 .6 1.3 1 .6.6 1.4 1 2 1 1.1.3 2.2.6 3.2.7.6.1 1.3 0 2 .3 1.3.3 2.7.1 4.1.2 1.6.1 3.2-.4 4.7-.5 1.4 0 2.7-.5 4-.8.9-.2 1.6-.8 2.4-1.2 0 0 .2-.1.2-.3.4-2 1-3.8 1-5.8l1-4.7v-1c.2-.4.6-.7 0-1v-.1c.8-.9.6-2.1.6-3.1 0-1.2.1-2.3.5-3.4 0-.1 0-.3-.2-.4-.6 0-1-.6-1.1-1.2-.2-.4-.3-.4-.7-.3-.9.2-1.1 1-1.5 1.9-.5 1.2-1.2 2.4-2 3.6.8.4 1.3-.3 1.9-.3-.5.5-1.2 1-1.8 1.2-.5.1-.8.4-1 .9-.4.6-.9 1.2-1.2 2 .8 0 1.3-.5 1.8-.6 1.7-.6 2.1-2.3 2.8-3.7.4-.9 1-1.7 1.1-2.8 0-.2.2-.2.4-.3 0 1-.5 1.7-.7 2.5-.4 1-1 1.7-1.2 2.6-.3 1.3-1.6 2-1.7 3.2.4.2.8-.1 1-.5l.8-1.3c.2.4-.2.8-.1 1.2.5 0 .3-.6.5-.8.1-.1.2-.4.4-.3.2.2 0 .3 0 .4-.2.5-.6.8-.8 1.1l-.2.2c-.6.1-.5 1-.9 1.3l-.6.7.3-1.1c-1 0-1.2.5-2.2 2.5 1-.2 1.8-.5 2.4-1.3.1 1 .1 1-.7 1.2-.6.2-1.2.4-1.8.8-.3 0-.4.2-.5.3-.3.3-.7.7-.6 1 .2.3.6-.2 1-.3.3 0 .8 0 1-.5.2-.2.4-.2.6 0-.1.5-.6.9-.8 1.3 0 .1-.1.2-.2.1-.5-.3-2 0-2.6.6l-1.4 1.9c.6.1.6-.7 1.2-.7-.6.8-1 1.6-1.9 2.1-.1.1-.3.4-.4.2-.4-.6-.8 0-1.2 0-1 0-1.8 0-2.6-.5.6-.2 1.4.1 2-.3v.1c.2.2.4.2.6 0 1-.7 2-1.5 2.9-2.7-.7 0-1.3.1-1.9.3-.2 0-.4.2-.6 0 0-.2-.2-.2 0-.4 0-.2.3-.2.5-.2.7-.2 1.4 0 2-.3.5-.3.8-.4 1-.9.1-.2.5-.2.3-.5-.1-.3-.4-.3-.7-.3 1.3-.3 2-1.3 2.6-2.6-.4-.1-.8 0-1.1.2-.4-.4-.8-.3-.8-1l1.7-.4c.8-.3 1.5-1 1.7-2l-2 .8c-.9.2-1.2.9-1.4 1.6Zm-27.4-25c-.2 1.4-.1 2.8 0 4.2.3 2 .4 4 .8 6 .3 1 .4 2.2 1 3.1 1.2 1.7 3.5 1.5 4.5-.3a33.4 33.4 0 0 0 2-12.3 9.7 9.7 0 0 1-8.3-.6Zm26.9-4.9-.6.6-2.3 3-.3.1c-.2 0-.2-.2-.1-.3.5-.6.4-1.1-.3-1.6l-.1-.2c-.1-.6-.4-.6-.8-.4.2.4.4 1 .3 1.5 0 .7-.3 1.4-.7 2-.2.3-.4.5-.6.3-.3-.3 0-.4.1-.6l.4-.9c.3-1 0-1.8-.6-2-.3-.2-.4 0-.7 0-.8 0-1 .5-1.2 1.7 0 .7.5.5.8.6l.4.2c.3.2.8 2 .8 2.4-.1.3-.3.3-.5 0l-.4-1.1c-.3-1-1.1-1.3-1.9-.6-.5.4-.7.9-.8 1.5 0 .3-.2.5-.4.4-.3 0-.2-.4-.2-.5l.5-1c.7-1.4.3-2.3-1-2.4-.2 0-.3 0-.4-.2-.5-.4-.9.2-1.1.4-.3.1-.3.6-.1 1 .4.8.5 1.7.4 2.5 0 .9.3.8.8.9 1.6.2 3.1.5 4.7.2 1.2-.3 2.3.4 3.5 0 .8-.3 1.7.1 2.6.1l4.4-.1c2 0 3.8-.6 5.6-1.4 1.6-.7 2-2.9.7-4.1-.5-.5-.8-.4-1 .3-.2 1-.5 2-.4 3.1 0 .4-.1.7-.3.7-.3 0-.4-.3-.5-.6l.2-1.4c-.4 0-.7.3-1 .6-1.1.7-2 1.4-3.3 2H46c-.1-.2-.1-.3 0-.4 0-.2.3-.4 0-.5-.2-.1-.5.1-.5.3-.2.4-.4.6-.8.4l-.3.2c-.5.5-.6 0-.7-.4v-1c0-.5-.1-.6-.4-.6-1-.4-1.9-.7-2.9-.3l.7 1.5c.1.2.3.5 0 .6-.3.2-.5 0-.6-.4l-.6-1.2c-.4-.6-.9-.7-1.3-.2-.5.5-.9 1.1-1.2 1.8 0 .3-.2.4-.4.3-.3 0-.1-.3 0-.5l.5-1.2c.6-1.1 1.3-2 2.7-1.3h.2c.2-.7.7-.5 1.2-.5l1-.1-.8-3.2ZM56 9.7c0-.2-.1-.2-.3-.2-.4 0-1-.3-1.3-.7L53 8c-.3-.1-.5 0-.7.3l-1.2 2.1c-1.2 2.1-2.5 4.2-3.9 6.2-.2.4-.2.7-.1 1l.7 2.4c.5 1.2.4 1.1 1.4.4.9-.7 1.7-1.6 2.7-2 .4-.2.5-.4.6-.8.5-1.6.9-3.1 1.6-4.5L56 10l.1-.3Zm-1.6-2.5c-.2.3-.3.4.2.7.7.4 1.6.4 2.3.8 1.1.7 1.1-.4 1.5-1l.1-.3c.5-1 1-2 1.2-3.2 0-.4 0-.4-.3-.4-1 .4-2.1-.1-3.1-.6-.5-.2-.8-.4-.6.5 0 .4-.4.8 0 1.2.5.3 0 .4-.2.5-.5.2-.5.5-.2.8.2.1.3.1.2.4 0 .3-.3.1-.7.1.5.3.6.6.2 1-.4.3-.3-.5-.6-.5ZM20 28c.6-.4 1.4-.1 2-.4.6-.3.7-.7.5-1.4-.4-.6-.9-1-1.6-1h-1c-1.3.1-2.6 0-3.8.8-.1 0-.5.2-.4.5 0 .3.3.4.5.5 1 .7 2.6.5 3.8 1Zm34.7 16c0-1-.5-1.6-1-2.2-.6-.4-1-.4-1.3.2-.9 1.3-.5 2.5.1 3.8.3.8 1.1 1 1.5.3.5-.6.6-1.4.7-2.1ZM23 21.1c-.4-.5-1.1-.4-1.7-.7a5.2 5.2 0 0 0-4.2 0c-.2.1-.3.3-.5 0s-.6-.2-.7.1c-.2.4.1.4.4.6 1.5.9 3 .9 4.6.4.6 0 1.4.1 2.1-.4ZM59.4 2.8c.3.1.5.1.6-.1l-.1-.6C59 1 57.9.6 56.7.3c-.5-.2-1.2.4-1 .7.1.4.3.8.7 1 1 .5 1.9 1.3 3 .8ZM26.1 27.6c.2.1.9-.8.6.4 0 .2.1.3.3.3l2 .5c.7.2.7-.1.7-.7 0-.3-.2-.8-.3-.8-.8.5-.7-.4-1-.7 0-.2 0-.5-.3-.7-.6-.2-1.2-.3-1.8 0-.5.2-.2.9-.2 1.4v.3ZM50.3 40c0 .3 0 .6.2 1 .2.3.5.2.8.2.2 0 0-.2 0-.4-.4-1.6 0-3.3 1.5-4 .2 0 .2 0 0-.2 0 0 .2-.3 0-.2-.4.4-.8-.2-1.2.1l-.9 1c-.3.8-.2 1.7-.4 2.5Zm1.6 0 .3-.1c.4-.5.8-.9 1.3 0l.4-.1c.3-.4.5-.7 0-1.2-.2-.3-.5-.7-.9-.7-.3-.1-.7.2-.8.5-.2.5-.4 1-.3 1.5Zm-.3-18.7.3-1.5c0-.2.2-.3 0-.5-.1-.3-.3 0-.4 0-.7.1-1 .6-1.5 1.2 0 0-.2.2 0 .3h.2c.7-.8.7-.8 1 0l.4.5ZM44.5 44v.2l2.1-2.6c-1.5.3-1.5 1.7-2.1 2.4Zm2.8-16.4 1.5-.8c.2 0 .3-.2.2-.4h-.3c-.1.5-.7.2-1 .5-.4.2-.5.4-.4.7Zm-2.8-5.4c.4-.4.4-1 .6-1.5.1-.3-.2-.2-.3-.3l-.1.2c.3.6-.2 1-.2 1.6Zm8.8-18.5c-.4.5-.5 1-.6 1.3 0 .2-.2.3 0 .3s.4.1.5-.1l.1-1.5ZM50.6 23c.6 0 .8-.5.8-.9l-.2-.1c-.5 0-.3.5-.6 1Zm.3 1.2-.5 1 .2.4c.2.2.2-.1.3-.2v-1.2ZM8.4 37.7c-.4.9-1.1 1.4-1.8 2-.6.4-1.2.3-1.8-.3A6.8 6.8 0 0 1 3.4 37c-.1 1 .3 1.8.8 2.5.1.3.4.5 0 .8l.1.6c.7 2.8 1 5.8 1 8.8v11c0 .3-.1.7-.4.7-.4 0-.3-.5-.3-.8.2-1.7.4-3.4.2-5.2v-6c0-2.6-.4-5-.8-7.3 0-.6-.5-1-.6-1.8l-.6-3c0-1.1-.2-2.2-.4-3.3 0-.8-.3-1.6-.3-2.5L2 29a160.5 160.5 0 0 1 .5-8.9c.2-1.7 1.2-2.7 2.7-2.8l2.2-.2a9 9 0 0 1 4 1c.2.1.3.4.3.8L11 23c-.3 2.4-.4 4.8-.8 7.2l-.7 4.5c-.4 2-.7 4-1.6 5.9-.9 2.1-1 4.4-1.3 6.7-.1 2.6-.2 5.2-.5 7.8 0 1.6-.2 3-.1 4.5 0 .4.3.8 0 1.3 0 .4.3.2.4.3 1 0 1.9.7 2.6 1.5.4.4.3 1.6-.2 2-.9.5-1.9 1-2.8 1.1-.8.2-1.5.2-2.2.2-1.3 0-2.4-.8-3.5-1.5-.5-.3-.5-1-.1-1.5 1.1-1.7 2.6-1.6 4.1-1.4.2 0 .3.2.2.4 0 .3-.2.5-.5.5-.3-.2-.6-.1-1-.2-.8-.3-1.5.2-2.1.8-.5.5-.3 1 0 1.2 1.6 1 3 1.3 4.7 1 .9-.1 1.6-.4 2.4-.9.6-.4.7-1.1.2-1.6-.8-.6-1.7-1.2-2.7-.8-.2 0-.3.4-.5 0 0-.2 0-.5.2-.5.3-.1.2-.2.2-.5 0-1.1-.2-2.2 0-3.4.2-.9 0-1.8.1-2.7l.5-6c0-1.4.2-3 .4-4.5s.4-3.3 1.3-4.6c.5-.7.4-1.4.6-2Zm2.4-18c-.8.2-1.6.7-2.5.6-.3 0-.6-.2-1-.1-1.1 0-2.2-.2-3.3-.7-.4-.2-.7 0-.9.5a13 13 0 0 0-.4 4.4l.1.4c.2.1.3 0 .4-.2.3-.4.7-.7 1.1-.8 1.1-.4 2.3-.2 3.4 0 .6 0 1.1.4 1.6.7.6.5.7 1.2.7 2 0 .6-.5.8-1 .9-.4.2-.8.2-1.2.2-1.7.3-3.3-1-5-.7V29c.6-1.2.9-1.3 1.5-1 .4.3.2.8.2 1.2 0 .4-.3.5-.4.7-.4.4-.7-.2-1.1 0-.3 1.4.2 2.8.3 4.1.8-.5.8-.5 1.2-.3-.1.3-.8.2-.4.5s.2.5.1.8c-.1.5-.4 0-.6 0l.3 1s.1.3.3 0c.2-.5.3-.1.5.1.2.3.3.6-.1.7l-.1.2c0 .6 1.2 2 1.7 1.8.4-.2.8-.4 1.2-.8 1-1 1.3-2.3 1.6-3.7a57 57 0 0 0 1.4-8.5l.3-4.2c0-.6.2-1.3.1-2ZM3 25.8c.1-.2.2-.5.4-.3.4.3.8.3 1.2.4 1.3.7 2.7 1.3 4.2.6.6-.3.7-.7.3-1.2-.4-.6-1-.7-1.5-.9a5.8 5.8 0 0 0-3.7.2c-.4.2-.8.6-1 1.2Zm7.7-7C9.5 17.6 6 17.5 4 18.3c1.5 1 5.1 1.3 6.7.4Z" fill="#000"/>
  <path d="M49 55.4c-.4.2-.6.7-.6 1.2 0 .9-.7 1.1-.9 1.8 0 .1-.2.1-.2.4l.2.2.2-.5c0-.1 0-.2.3-.4 0 .5.2.9-.3 1.2-.4.2-.6.4-.6 1-.1.7-.6 1.2-1 1.8-.4.8-1.1 1.4-2 1.9.4-.7.4-1.3 0-1.8-.3-.4-.1-.4.1-.6 1-.3 1.6-1.2 2.2-2.1.2-.3 0-.4-.2-.5-.6-.4-1.3 0-1.6 1-.1.3-.2.5-.6.3l.4-.7c-1 1-2.2 1.3-2.7 3-.3.8-.6.7-.9 0l.2-.3 1.7-2.3c-1 .2-1.5 1-2 1.5-.2.1-.4.2-.5 0-.1-.4 0-.4.3-.5.7-.4 1-1 1.5-1.7.3-.3.5-.4.7-.3.5.2.8-.2 1-.6.1-.9.6-1.2 1.3-1.4a9 9 0 0 0-1 2c.5-.3.7-.8 1-1.4 1-2 2.3-3.9 3.2-6 0-.2.2-.3.3-.4.2-.5.4 0 .5 0 .1.3 0 .5-.2.6-.3.1-.5.1-.2.6.2.2-.1.7-.2 1-.9 1.5-1.5 3.1-2.4 4.6.1 0 .2 0 .2.2.7.5 1.1.2 1.3-.7.3-.8.9-1.3 1.1-2.1 0-.4.2-.1.4 0ZM30 35.2l-1.4-.3a25 25 0 0 1-4.9-1.9c-.3-.1-.6-.1-.5-.6 0-.5.5-.4.8-.3.8.1 1.3.8 2 1.1 1.2.6 2.5.8 3.7 1 2.1.5 4.3.8 6.5.8 1.2 0 2.4.2 3.6 0l2.1.1c1.2 0 2.3-.2 3.3-.4H47c1.7-.3 3.5-.3 5-1.3.3-.2.7-.3.7 0 .1.4-.2.5-.5.7-1.7.8-3.6 1-5.5 1.2-1.3.1-2.6.7-4 .6h-3.5c-.8-.1-1.6.1-2.4.1-1.3 0-2.6 0-3.9-.3-.8-.5-1.7-.6-2.8-.5Z" fill="#000"/>
  <path d="M43.7 62.3c-.9 1.3-2 2-3.5 1.6.5-.7 1.3-.8 2-1.5 0 0 .1-.2.2 0 .3 0 .4-.7.6-.3.2.3-.2.4-.3.7l-.1.4c.3-.4.7-.6 1.1-.9ZM47.3 49c.1-.7.5-1.3 1.7-2 .4 1-1 1.4-1.7 2ZM40.2 62.2l-.3.3c-.3.7-.7 1.2-1.5 1.5.4-.8 1-1.3 1.5-1.9 0-.2.2 0 .3 0ZM46.8 51.2l.3-.2c.8.9-.8 1.3-1.4 2-.8-.8 1.2-1.1 1-1.8ZM17 30.8c0 .6-.6 1.2-1 1.2-.2 0-.8-.7-.8-1.1 0-.5.5-.9 1.2-.9.5 0 .5.5.6.8ZM15.7 36c-.4 0-.5-.2-.5-.8 0-.6 0-1.2.8-1.2.5 0 1 .1 1 .8-.2.8-.6 1-1.3 1.2ZM5.4 30c-.8.5-.8 1.1-1.4 1.7-.6.5-.9.3-1.5 0l-.6-.4c-.3-.3-.1-.8.5-.8 1 0 2-.1 3-.5Z" fill="#000"/>
</svg>

